HIERARCHY
ROOT SpineBase
{
  OFFSET 0.000000 0.000000 0.000000
  CHANNELS 6 Xposition Yposition Zposition Zrotation Xrotation Yrotation
  JOINT SpineMid
  {
    OFFSET -0.000000 32.361188 0.000000
    CHANNELS 3 Zrotation Xrotation Yrotation
    JOINT SpineShoulder
    {
      OFFSET 0.214008 24.004588 -0.722550
      CHANNELS 3 Zrotation Xrotation Yrotation
      JOINT Neck
      {
        OFFSET 0.146657 7.933565 -0.572945
        CHANNELS 3 Zrotation Xrotation Yrotation
        JOINT Head
        {
          OFFSET -5.924655 13.918913 -0.774453
          CHANNELS 3 Zrotation Xrotation Yrotation
          End Site
          {
            OFFSET 0 0 0
          }
        }
      }
      JOINT ShoulderLeft
      {
        OFFSET -16.901517 -6.898041 6.616355
        CHANNELS 3 Zrotation Xrotation Yrotation
        JOINT ElbowLeft
        {
          OFFSET -1.499866 -26.590802 4.122847
          CHANNELS 3 Zrotation Xrotation Yrotation
          JOINT WristLeft
          {
            OFFSET -0.089369 -21.778674 -2.533707
            CHANNELS 3 Zrotation Xrotation Yrotation
            JOINT HandLeft
            {
              OFFSET 0.688030 -6.411434 -1.116977
              CHANNELS 3 Zrotation Xrotation Yrotation
              JOINT HandTipLeft
              {
                OFFSET 0.378596 -6.935277 -0.749532
                CHANNELS 3 Zrotation Xrotation Yrotation
                End Site
                {
                  OFFSET 0 0 0
                }
              }
              JOINT ThumbLeft
              {
                OFFSET 3.153975 0.054415 -4.304213
                CHANNELS 3 Zrotation Xrotation Yrotation
                End Site
                {
                  OFFSET 0 0 0
                }
              }
            }
          }
        }
      }
      JOINT ShoulderRight
      {
        OFFSET 14.929162 -3.752456 -9.121801
        CHANNELS 3 Zrotation Xrotation Yrotation
        JOINT ElbowRight
        {
          OFFSET 7.576991 -26.266144 -1.138718
          CHANNELS 3 Zrotation Xrotation Yrotation
          JOINT WristRight
          {
            OFFSET -0.942641 -24.121311 -5.799660
            CHANNELS 3 Zrotation Xrotation Yrotation
            JOINT HandRight
            {
              OFFSET -1.309940 -6.078431 -0.028595
              CHANNELS 3 Zrotation Xrotation Yrotation
              JOINT HandTipRight
              {
                OFFSET -0.444061 -6.569577 -0.664856
                CHANNELS 3 Zrotation Xrotation Yrotation
                End Site
                {
                  OFFSET 0 0 0
                }
              }
              JOINT ThumbRight
              {
                OFFSET 3.696358 -0.467633 -0.582621
                CHANNELS 3 Zrotation Xrotation Yrotation
                End Site
                {
                  OFFSET 0 0 0
                }
              }
            }
          }
        }
      }
    }
  }
  JOINT HipLeft
  {
    OFFSET -5.962972 -0.011760 -0.730938
    CHANNELS 3 Zrotation Xrotation Yrotation
    JOINT KneeLeft
    {
      OFFSET 3.057498 -35.490273 4.734906
      CHANNELS 3 Zrotation Xrotation Yrotation
      JOINT AnkleLeft
      {
        OFFSET 7.439446 -35.305426 6.208664
        CHANNELS 3 Zrotation Xrotation Yrotation
        JOINT FootLeft
        {
          OFFSET -3.309916 -4.786251 -11.534924
          CHANNELS 3 Zrotation Xrotation Yrotation
          End Site
          {
            OFFSET 0 0 0
          }
        }
      }
    }
  }
  JOINT HipRight
  {
    OFFSET 7.550531 1.766243 -6.441413
    CHANNELS 3 Zrotation Xrotation Yrotation
    JOINT KneeRight
    {
      OFFSET 8.049337 -33.638429 1.108791
      CHANNELS 3 Zrotation Xrotation Yrotation
      JOINT AnkleRight
      {
        OFFSET 3.745844 -36.345164 7.250644
        CHANNELS 3 Zrotation Xrotation Yrotation
        JOINT FootRight
        {
          OFFSET -3.395738 -5.670145 -8.752034
          CHANNELS 3 Zrotation Xrotation Yrotation
          End Site
          {
            OFFSET 0 0 0
          }
        }
      }
    }
  }
}
MOTION
Frames: 10
Frame Time: 0.033333
-69.837521 80.277667 326.684832 0.000000 0.000000 22.907726 -0.000000 0.000000 -22.907726 -0.000000 0.000000 0.000000 -0.000000 0.000000 0.000000 0.000000 0.000000 0.000000 -0.000000 0.000000 0.000000 -0.000000 0.000000 0.000000 -0.000000 0.000000 0.000000 -0.000000 0.000000 0.000000 0.000000 0.000000 0.000000 0.000000 0.000000 0.000000 -0.000000 0.000000 0.000000 -0.000000 0.000000 0.000000 -0.000000 0.000000 0.000000 -0.000000 0.000000 0.000000 0.000000 0.000000 0.000000 0.000000 0.000000 0.000000 -0.000000 0.000000 -22.907726 -0.000000 0.000000 0.000000 -0.000000 0.000000 0.000000 0.000000 0.000000 0.000000 -0.000000 0.000000 -22.907726 -0.000000 0.000000 0.000000 -0.000000 0.000000 0.000000 0.000000 0.000000 0.000000
-69.824586 80.297823 326.742660 0.001761 0.015297 22.790140 -0.007549 -0.013421 -22.790142 -0.000000 0.000000 0.000000 -0.000000 0.000000 0.000000 0.000000 0.000000 0.000000 -0.000000 0.000000 0.000000 -0.000000 0.000000 0.000000 -1.582763 0.785669 0.371033 2.934818 2.363351 -0.339519 0.000000 0.000000 0.000000 0.000000 0.000000 0.000000 -0.000000 0.000000 0.000000 -0.000000 0.000000 0.000000 -1.297130 1.513804 -0.302257 1.305548 -1.506550 0.336560 0.000000 0.000000 0.000000 0.000000 0.000000 0.000000 -0.007549 -0.013421 -22.790142 -0.000000 0.000000 0.000000 1.386700 -1.955901 -2.067892 0.000000 0.000000 0.000000 -0.007549 -0.013421 -22.790142 -0.000000 0.000000 0.000000 2.717699 -10.115712 2.494747 0.000000 0.000000 0.000000
-69.812054 80.315670 326.783823 0.000977 0.034283 22.699193 -0.014131 -0.031250 -22.699197 -0.000000 0.000000 0.000000 -0.000000 0.000000 0.000000 0.000000 0.000000 0.000000 -0.000000 0.000000 0.000000 1.406799 0.174802 -0.166516 -4.453304 1.219158 0.871588 5.662892 4.505913 -0.665493 0.000000 0.000000 0.000000 0.000000 0.000000 0.000000 -0.000000 0.000000 0.000000 0.312490 -0.780922 -0.042561 -2.617559 3.411627 -0.423428 1.347433 -2.018048 0.625582 0.000000 0.000000 0.000000 0.000000 0.000000 0.000000 -0.014131 -0.031250 -22.699197 -0.000000 0.000000 0.000000 2.779401 -4.267259 -4.076649 0.000000 0.000000 0.000000 -0.014131 -0.031250 -22.699197 -0.000000 0.000000 0.000000 5.692015 -19.192917 5.315972 0.000000 0.000000 0.000000
-69.799923 80.331209 326.808320 -0.002354 0.056956 22.635124 -0.019748 -0.053475 -22.635132 -0.000000 0.000000 0.000000 -0.000000 0.000000 0.000000 0.000000 0.000000 0.000000 -0.605431 -0.755912 -0.055154 2.487424 1.052238 -0.202747 -6.258001 1.535503 1.224281 8.074327 6.221049 -0.970822 0.000000 0.000000 0.000000 0.000000 0.000000 0.000000 -0.000000 0.000000 0.000000 0.369561 -1.029053 -0.045426 -3.466570 4.471764 -0.524109 1.753123 -2.671295 0.832095 0.000000 0.000000 0.000000 0.000000 0.000000 0.000000 -0.019748 -0.053475 -22.635132 -0.000000 0.000000 0.000000 4.172899 -6.964665 -6.013690 0.000000 0.000000 0.000000 -0.019748 -0.053475 -22.635132 -0.000000 0.000000 0.000000 8.474589 -26.139709 8.020061 0.000000 0.000000 0.000000
-69.788193 80.344439 326.816154 -0.008233 0.083317 22.598102 -0.024415 -0.080084 -22.598113 -0.000000 0.000000 0.000000 -0.000000 0.000000 0.000000 0.000000 0.000000 0.000000 -0.705043 -0.860815 -0.065958 2.941330 1.299833 -0.248823 -7.795548 1.646102 1.509200 10.058527 7.317532 -1.237959 0.000000 0.000000 0.000000 0.000000 0.000000 0.000000 -0.000000 0.000000 0.000000 0.358916 -1.177672 -0.036679 -4.081855 5.181782 -0.591182 2.040520 -3.163726 0.982690 0.000000 0.000000 0.000000 0.000000 0.000000 0.000000 -0.024415 -0.080084 -22.598113 -0.000000 0.000000 0.000000 5.562218 -10.078038 -7.862993 0.000000 0.000000 0.000000 -0.024415 -0.080084 -22.598113 -0.000000 0.000000 0.000000 10.520918 -30.482191 10.059521 0.000000 0.000000 0.000000
-69.776866 80.355361 326.807322 -0.016661 0.113362 22.588222 -0.028160 -0.111066 -22.588233 -0.000000 0.000000 0.000000 -0.000000 0.000000 0.000000 0.000000 0.000000 0.000000 -0.752581 -0.891148 -0.072160 3.236188 1.496266 -0.282742 -9.068294 1.539994 1.717188 11.517644 7.648523 -1.447466 0.000000 0.000000 0.000000 0.000000 0.000000 0.000000 -0.000000 0.000000 0.000000 0.280869 -1.225689 -0.016671 -4.495024 5.571439 -0.639427 2.234319 -3.522397 1.083641 0.000000 0.000000 0.000000 0.000000 0.000000 0.000000 -0.028160 -0.111066 -22.588233 -0.000000 0.000000 0.000000 6.943032 -13.633480 -9.604018 0.000000 0.000000 0.000000 -0.028160 -0.111066 -22.588233 -0.000000 0.000000 0.000000 11.384266 -32.174412 10.983735 0.000000 0.000000 0.000000
-69.763867 80.363249 326.762948 -0.025809 0.170526 22.591687 -0.041681 -0.167356 -22.591709 -0.000000 0.000000 0.000000 -0.000000 0.000000 0.000000 0.000000 0.000000 0.000000 -0.709812 -0.807762 -0.069397 3.447522 1.776198 -0.324725 -10.711901 1.193205 1.948733 12.957970 6.906961 -1.666533 0.000000 0.000000 0.000000 0.000000 0.000000 0.000000 -0.000000 0.000000 0.000000 0.050580 -1.095074 0.031190 -4.805873 6.314628 -0.817899 2.136286 -5.166684 1.341105 0.000000 0.000000 0.000000 0.000000 0.000000 0.000000 -0.041681 -0.167356 -22.591709 -0.000000 0.000000 0.000000 8.289680 -17.271596 -11.465223 0.000000 0.000000 0.000000 -0.041681 -0.167356 -22.591709 -0.000000 0.000000 0.000000 6.869557 -22.268348 6.421044 0.000000 0.000000 0.000000
-69.749017 80.369301 326.704687 -0.036999 0.222453 22.647914 -0.051513 -0.219547 -22.647941 -0.000000 0.000000 0.000000 -0.000000 0.000000 0.000000 0.000000 0.000000 0.000000 -0.585956 -0.792297 -0.050145 3.418075 2.539018 -0.376466 -11.820613 -0.115594 1.905305 14.207251 6.274909 -1.893320 0.000000 0.000000 0.000000 0.000000 0.000000 0.000000 -0.000000 0.000000 0.000000 -0.262556 -0.823452 0.093575 -5.064322 5.936668 -0.850659 2.744350 -5.914172 1.379343 0.000000 0.000000 0.000000 0.000000 0.000000 0.000000 -0.051513 -0.219547 -22.647941 -0.000000 0.000000 0.000000 11.411604 -28.069605 -14.900557 0.000000 0.000000 0.000000 -0.051513 -0.219547 -22.647941 -0.000000 0.000000 0.000000 5.525726 -19.089926 5.523974 0.000000 0.000000 0.000000
-69.744706 80.373933 326.683446 -0.059024 0.246688 22.796456 -0.041168 -0.250288 -22.796419 -0.000000 0.000000 0.000000 -0.000000 0.000000 0.000000 0.000000 0.000000 0.000000 -0.000000 0.000000 0.000000 2.456783 1.764353 -0.330376 -11.198523 -2.392678 1.411148 13.280243 6.510870 -1.902341 0.000000 0.000000 0.000000 0.000000 0.000000 0.000000 -0.000000 0.000000 0.000000 -0.000000 0.000000 0.000000 -5.213651 3.976301 -0.645166 2.684628 -4.569718 1.119080 0.000000 0.000000 0.000000 0.000000 0.000000 0.000000 -0.041168 -0.250288 -22.796419 -0.000000 0.000000 0.000000 12.533609 -32.370066 -16.251994 0.000000 0.000000 0.000000 -0.041168 -0.250288 -22.796419 -0.000000 0.000000 0.000000 4.851736 -17.572324 5.245981 0.000000 0.000000 0.000000
-69.741920 80.374702 326.624108 -0.081687 0.259933 22.827818 -0.025556 -0.271265 -22.827693 -0.000000 0.000000 0.000000 -0.000000 0.000000 0.000000 0.000000 0.000000 0.000000 -0.000000 0.000000 0.000000 2.289340 1.275875 -0.296744 -10.479670 -0.189315 1.699484 9.466635 -0.585878 -1.537934 0.000000 0.000000 0.000000 0.000000 0.000000 0.000000 -0.000000 0.000000 0.000000 -0.000000 0.000000 0.000000 -5.213775 3.828035 -0.620184 3.151016 -4.834141 1.094643 0.000000 0.000000 0.000000 0.000000 0.000000 0.000000 -0.025556 -0.271265 -22.827693 -0.000000 0.000000 0.000000 12.715797 -33.232572 -16.151330 0.000000 0.000000 0.000000 -0.025556 -0.271265 -22.827693 -0.000000 0.000000 0.000000 4.756565 -17.493250 5.343702 0.000000 0.000000 0.000000
